<mxfile host="65bd71144e">
    <diagram id="QQsvMF3hVONvnHg3q7FD" name="Page-1">
        <mxGraphModel dx="906" dy="612" grid="1" gridSize="10" guides="1" tooltips="1" connect="1" arrows="1" fold="1" page="1" pageScale="1" pageWidth="850" pageHeight="1100" math="0" shadow="0">
            <root>
                <mxCell id="0"/>
                <mxCell id="1" parent="0"/>
                <mxCell id="7" style="edgeStyle=none;html=1;" edge="1" parent="1" source="2">
                    <mxGeometry relative="1" as="geometry">
                        <mxPoint x="430" y="440" as="targetPoint"/>
                    </mxGeometry>
                </mxCell>
                <mxCell id="2" value="Diagram1 heading" style="shape=umlFrame;whiteSpace=wrap;html=1;width=120;height=30;boundedLbl=1;verticalAlign=middle;align=left;spacingLeft=5;" vertex="1" parent="1">
                    <mxGeometry x="260" y="90" width="340" height="180" as="geometry"/>
                </mxCell>
            </root>
        </mxGraphModel>
    </diagram>
</mxfile>